<svg width="200" height="200" viewBox="0 0 200 200" fill="none" xmlns="http://www.w3.org/2000/svg">
<g id="Group">
<g id="Group_2">
<path id="Vector" d="M196.721 87.998C197.627 87.998 198.36 87.262 198.36 86.3534V68.2635H198.262H194.976H191.524L100.711 8.85449L9.20318 68.2635H1.63867V86.3534C1.63867 87.262 2.3721 87.998 3.27761 87.998H44.2018C45.1073 87.998 45.8407 87.262 45.8407 86.3534V73.4594C45.8407 70.7361 48.0402 68.5274 50.7551 68.5258L149.091 68.4715C151.808 68.4699 154.01 70.6793 154.01 73.4051V86.3534C154.01 87.262 154.744 87.998 155.649 87.998H196.721Z" fill="#E0EBFC"/>
</g>
<g id="Group_3">
<path id="Vector_2" d="M112.413 78.2632H87.5385C87.0501 78.2632 86.6543 78.6603 86.6543 79.1504V86.3231C86.6543 86.8131 87.0501 87.2103 87.5385 87.2103H89.5093V162.219C89.5093 168.349 93.7378 173.318 98.9529 173.318H100.999C106.215 173.318 110.443 168.349 110.443 162.219V87.2103H112.413C112.902 87.2103 113.298 86.8131 113.298 86.3231V79.1504C113.297 78.6595 112.901 78.2632 112.413 78.2632Z" fill="#E0EBFC"/>
</g>
<g id="Group_4">
<path id="Vector_3" d="M100.999 174.961H98.9531C92.8415 174.961 87.8706 169.245 87.8706 162.217V88.8529H87.5388C86.1473 88.8529 85.0156 87.7173 85.0156 86.3211V79.1485C85.0156 77.7522 86.1473 76.6167 87.5388 76.6167H112.414C113.805 76.6167 114.937 77.7522 114.937 79.1485V86.3211C114.937 87.7173 113.805 88.8529 112.414 88.8529H112.082V162.217C112.082 169.245 107.11 174.961 100.999 174.961ZM88.2935 85.5646H89.5088C90.4135 85.5646 91.1477 86.3014 91.1477 87.2092V162.218C91.1477 167.431 94.6485 171.673 98.9523 171.673H100.999C105.302 171.673 108.803 167.431 108.803 162.218V87.2092C108.803 86.3014 109.537 85.5646 110.442 85.5646H111.657V79.9074H88.2919V85.5646H88.2935Z" fill="#3762CC"/>
</g>
<g id="Group_5">
<path id="Vector_4" d="M92.3633 162.218C92.3633 166.488 95.3191 169.963 98.9526 169.963H100.999C104.632 169.963 107.588 166.488 107.588 162.218V149.306C107.588 148.322 106.793 147.524 105.812 147.524H94.1399C93.159 147.524 92.3633 148.322 92.3633 149.306V162.218Z" fill="#EAA97D"/>
</g>
<g id="Group_6">
<path id="Vector_5" d="M100.085 157.821C99.1043 157.821 98.3086 157.024 98.3086 156.039V94.254C98.3086 93.2698 99.1035 92.4722 100.085 92.4722C101.066 92.4722 101.861 93.2698 101.861 94.254V156.039C101.861 157.024 101.066 157.821 100.085 157.821Z" fill="#F9A7A7"/>
</g>
<g id="Group_7">
<path id="Vector_6" d="M100.535 142.479C107.823 145.159 108.45 137.112 108.467 134.507C108.469 134.068 108.121 133.709 107.698 133.716C105.143 133.758 97.1179 134.461 99.8541 141.792C99.9737 142.112 100.224 142.363 100.535 142.479Z" fill="#6BDDDD"/>
</g>
<g id="Group_8">
<path id="Vector_7" d="M100.535 118.715C107.823 121.396 108.45 113.349 108.467 110.744C108.469 110.304 108.121 109.946 107.698 109.953C105.143 109.995 97.1179 110.698 99.8541 118.029C99.9737 118.349 100.224 118.6 100.535 118.715Z" fill="#6BDDDD"/>
</g>
<g id="Group_9">
<path id="Vector_8" d="M99.5527 94.8496C106.841 97.5302 107.468 89.4835 107.484 86.8785C107.487 86.4386 107.138 86.0801 106.716 86.0875C104.161 86.1295 96.1355 86.8325 98.8717 94.163C98.9905 94.4829 99.2404 94.7345 99.5527 94.8496Z" fill="#6BDDDD"/>
</g>
<g id="Group_10">
<path id="Vector_9" d="M99.416 129.103C92.1277 131.784 91.5008 123.737 91.4844 121.132C91.4819 120.692 91.8302 120.334 92.253 120.341C94.8081 120.383 102.833 121.086 100.097 128.416C99.9773 128.736 99.7274 128.988 99.416 129.103Z" fill="#6BDDDD"/>
</g>
<g id="Group_11">
<path id="Vector_10" d="M99.416 105.339C92.1277 108.02 91.5008 99.9732 91.4844 97.3683C91.4819 96.9284 91.8302 96.5699 92.253 96.5773C94.8081 96.6192 102.833 97.3222 100.097 104.653C99.9773 104.973 99.7274 105.224 99.416 105.339Z" fill="#6BDDDD"/>
</g>
<g id="Group_12">
<path id="Vector_11" d="M196.672 198.356H3.27761C2.3721 198.356 1.63867 197.62 1.63867 196.711V183.555C1.63867 182.646 2.3721 181.91 3.27761 181.91H196.672C197.577 181.91 198.311 182.646 198.311 183.555V196.711C198.311 197.619 197.577 198.356 196.672 198.356Z" fill="#F9A7A7"/>
</g>
<g id="Group_13">
<path id="Vector_12" d="M36.0567 100.14H11.4727V169.768H36.0567V100.14Z" fill="#E0EBFC"/>
</g>
<g id="Group_14">
<path id="Vector_13" d="M40.9723 181.91H6.55469V171.412C6.55469 170.504 7.28811 169.768 8.19362 169.768H39.3334C40.2389 169.768 40.9723 170.504 40.9723 171.412V181.91Z" fill="#A4C9FF"/>
</g>
<g id="Group_15">
<path id="Vector_14" d="M39.3334 100.139H8.19362C7.28811 100.139 6.55469 99.4031 6.55469 98.4945V87.9966H40.9723V98.4945C40.9723 99.4031 40.2389 100.139 39.3334 100.139Z" fill="#A4C9FF"/>
</g>
<g id="Group_16">
<path id="Vector_15" d="M188.479 100.14H163.895V169.768H188.479V100.14Z" fill="#E0EBFC"/>
</g>
<g id="Group_17">
<path id="Vector_16" d="M193.394 181.91H158.977V171.412C158.977 170.504 159.71 169.768 160.615 169.768H191.755C192.661 169.768 193.394 170.504 193.394 171.412V181.91Z" fill="#A4C9FF"/>
</g>
<g id="Group_18">
<path id="Vector_17" d="M191.755 100.139H160.615C159.71 100.139 158.977 99.4031 158.977 98.4945V87.9966H193.394V98.4945C193.394 99.4031 192.661 100.139 191.755 100.139Z" fill="#A4C9FF"/>
</g>
<g id="Group_19">
<path id="Vector_18" d="M9.15401 68.2632L98.875 10.0144C99.9625 9.30891 101.361 9.31138 102.445 10.021L191.474 68.2632H198.212H198.311V63.3296C198.311 62.421 197.577 61.685 196.672 61.685H193.423L102.459 2.17655C101.374 1.46693 99.9756 1.46446 98.889 2.16997L7.21843 61.685H3.27761C2.3721 61.685 1.63867 62.421 1.63867 63.3296V68.2632H9.15401Z" fill="#A4C9FF"/>
</g>
<g id="Group_20">
<g id="Group_21">
<path id="Vector_19" d="M75.479 51.1534C75.0004 50.6395 75.0487 49.8526 75.4855 49.3025C76.1772 48.4326 76.5484 47.3504 76.5484 46.1253C76.5484 43.3748 74.4669 40.5996 69.8156 40.5996H63.423C62.6469 40.5996 62.0176 41.2311 62.0176 42.0098V59.2512C62.0176 60.0298 62.6469 60.6613 63.423 60.6613H70.1623C74.1736 60.6613 76.9753 58.3006 76.9753 54.9219C76.9745 53.4953 76.3984 52.141 75.479 51.1534ZM66.5296 45.9756C66.5296 45.1969 67.1589 44.5654 67.935 44.5654H69.5485C70.4573 44.5654 71.9815 44.8162 71.9815 46.4994C71.9815 48.0749 70.658 48.4062 69.5485 48.4062H67.935C67.1589 48.4062 66.5296 47.7747 66.5296 46.996V45.9756ZM69.8959 56.6939H67.935C67.1589 56.6939 66.5296 56.0624 66.5296 55.2837V53.7822C66.5296 53.0035 67.1589 52.372 67.935 52.372H69.7894C71.4628 52.372 72.4625 53.205 72.4625 54.5996C72.4625 56.4217 70.8539 56.6939 69.8959 56.6939Z" fill="#A4C9FF"/>
</g>
<g id="Group_22">
<path id="Vector_20" d="M86.4003 41.5077L80.2436 58.7753C79.9158 59.6938 80.5943 60.6608 81.5671 60.6608H83.3166C83.9132 60.6608 84.4442 60.2834 84.6425 59.7193L85.3137 57.8059C85.512 57.2418 86.043 56.8644 86.6396 56.8644H91.3589C91.9554 56.8644 92.4865 57.2418 92.6848 57.8059L93.3559 59.7193C93.5542 60.2834 94.0852 60.6608 94.6818 60.6608H96.4584C97.4303 60.6608 98.1088 59.6938 97.7819 58.7753L91.6252 41.5077C91.4252 40.9469 90.8959 40.5728 90.3018 40.5728H87.7254C87.1296 40.5728 86.6002 40.9469 86.4003 41.5077ZM87.6778 51.0189C88.1195 49.7624 89.8912 49.7649 90.3296 51.0222C90.6492 51.939 89.9715 52.8978 89.0029 52.8978C88.0335 52.8978 87.3549 51.9365 87.6778 51.0189Z" fill="#A4C9FF"/>
</g>
<g id="Group_23">
<path id="Vector_21" d="M111.315 48.7986L106.303 41.2041C106.042 40.8094 105.602 40.5726 105.131 40.5726H103.12C102.344 40.5726 101.715 41.2041 101.715 41.9828V59.2505C101.715 60.0292 102.344 60.6607 103.12 60.6607H104.822C105.598 60.6607 106.228 60.0292 106.228 59.2505V53.1977C106.228 51.7999 108.037 51.2539 108.806 52.4199L113.817 60.0275C114.077 60.4222 114.517 60.6598 114.989 60.6598H117C117.776 60.6598 118.405 60.0283 118.405 59.2496V41.982C118.405 41.2033 117.776 40.5718 117 40.5718H115.298C114.521 40.5718 113.892 41.2033 113.892 41.982V48.0191C113.892 49.4178 112.084 49.9637 111.315 48.7986Z" fill="#A4C9FF"/>
</g>
<g id="Group_24">
<path id="Vector_22" d="M131.619 49.7058L137.476 42.9335C138.265 42.0208 137.619 40.5991 136.414 40.5991H134.376C133.965 40.5991 133.573 40.78 133.307 41.095L130.087 44.8881C129.24 45.8863 127.612 45.2852 127.612 43.9737V42.0093C127.612 41.2306 126.983 40.5991 126.207 40.5991H124.505C123.729 40.5991 123.1 41.2306 123.1 42.0093V59.2507C123.1 60.0294 123.729 60.6609 124.505 60.6609H126.207C126.983 60.6609 127.612 60.0294 127.612 59.2507V57.3784C127.612 56.0726 129.229 55.4682 130.081 56.4558L133.285 60.1733C133.552 60.4833 133.94 60.6609 134.348 60.6609H136.53C137.741 60.6609 138.385 59.2268 137.582 58.3166L131.629 51.5641C131.16 51.0346 131.157 50.2402 131.619 49.7058Z" fill="#A4C9FF"/>
</g>
</g>
<g id="Group_25">
<path id="Vector_23" d="M196.721 89.6424H155.65C153.842 89.6424 152.372 88.1673 152.372 86.3533V73.4051C152.372 72.526 152.03 71.6997 151.411 71.0789C150.793 70.458 149.969 70.116 149.095 70.116H149.092L50.7562 70.1702C48.9501 70.1711 47.4799 71.647 47.4799 73.4593V86.3533C47.4799 88.1673 46.0098 89.6424 44.2021 89.6424H3.27787C1.47012 89.6424 0 88.1673 0 86.3533V68.2634C0 67.3556 0.734243 66.6189 1.63893 66.6189H8.71913L99.8209 7.47381C100.364 7.12106 101.064 7.12188 101.607 7.4771L192.011 66.6189H198.361C199.266 66.6189 200 67.3556 200 68.2634V86.3533C199.999 88.1664 198.529 89.6424 196.721 89.6424ZM149.095 66.8269C150.845 66.8269 152.491 67.511 153.729 68.7518C154.968 69.9943 155.65 71.647 155.65 73.4051V86.3533H196.724L196.722 69.9079H191.524C191.206 69.9079 190.895 69.815 190.629 69.6407L100.708 10.8147L10.0934 69.644C9.82787 69.8158 9.51893 69.9079 9.20344 69.9079H3.27787V86.3533H44.2021V73.4593C44.2021 69.8339 47.1415 66.8828 50.7545 66.8812L149.091 66.8269C149.091 66.8269 149.093 66.8269 149.095 66.8269Z" fill="#3762CC"/>
</g>
<g id="Group_26">
<path id="Vector_24" d="M196.672 200H3.27787C1.47012 200 0 198.525 0 196.711V183.555C0 181.741 1.47012 180.266 3.27787 180.266H196.672C198.48 180.266 199.95 181.741 199.95 183.555V196.711C199.95 198.524 198.48 200 196.672 200ZM3.27787 183.555V196.711H196.674L196.672 183.555H3.27787Z" fill="#3762CC"/>
</g>
<g id="Group_27">
<path id="Vector_25" d="M36.0569 171.412H11.4729C10.5682 171.412 9.83398 170.676 9.83398 169.768V100.14C9.83398 99.2319 10.5682 98.4951 11.4729 98.4951H36.0569C36.9616 98.4951 37.6959 99.2319 37.6959 100.14V169.768C37.6959 170.676 36.9616 171.412 36.0569 171.412ZM13.1119 168.123H34.418V101.784H13.1119V168.123Z" fill="#3762CC"/>
</g>
<g id="Group_28">
<path id="Vector_26" d="M40.9745 183.555H6.5569C5.65221 183.555 4.91797 182.818 4.91797 181.91V171.412C4.91797 169.598 6.38809 168.123 8.19584 168.123H39.3356C41.1433 168.123 42.6135 169.598 42.6135 171.412V181.91C42.6135 182.818 41.8792 183.555 40.9745 183.555ZM8.19584 180.266H39.3356V171.412H8.19584V180.266Z" fill="#3762CC"/>
</g>
<g id="Group_29">
<path id="Vector_27" d="M39.3356 101.784H8.19584C6.38809 101.784 4.91797 100.308 4.91797 98.4945V87.9966C4.91797 87.0888 5.65221 86.3521 6.5569 86.3521H40.9745C41.8792 86.3521 42.6135 87.0888 42.6135 87.9966V98.4945C42.6135 100.308 41.1433 101.784 39.3356 101.784ZM8.19584 89.642V98.4953H39.3372L39.3356 89.642H8.19584Z" fill="#3762CC"/>
</g>
<g id="Group_30">
<path id="Vector_28" d="M188.479 171.412H163.895C162.99 171.412 162.256 170.676 162.256 169.768V100.14C162.256 99.2319 162.99 98.4951 163.895 98.4951H188.479C189.384 98.4951 190.118 99.2319 190.118 100.14V169.768C190.118 170.676 189.384 171.412 188.479 171.412ZM165.534 168.123H186.84V101.784H165.534V168.123Z" fill="#3762CC"/>
</g>
<g id="Group_31">
<path id="Vector_29" d="M193.394 183.555H158.977C158.072 183.555 157.338 182.818 157.338 181.91V171.412C157.338 169.598 158.808 168.123 160.616 168.123H191.756C193.563 168.123 195.033 169.598 195.033 171.412V181.91C195.033 182.818 194.299 183.555 193.394 183.555ZM160.616 180.266H191.756V171.412H160.616V180.266Z" fill="#3762CC"/>
</g>
<g id="Group_32">
<path id="Vector_30" d="M191.756 101.784H160.616C158.808 101.784 157.338 100.308 157.338 98.4945V87.9966C157.338 87.0888 158.072 86.3521 158.977 86.3521H193.394C194.299 86.3521 195.033 87.0888 195.033 87.9966V98.4945C195.033 100.308 193.563 101.784 191.756 101.784ZM160.616 89.642V98.4953H191.757L191.756 89.642H160.616Z" fill="#3762CC"/>
</g>
<g id="Group_33">
<path id="Vector_31" d="M198.311 69.9079H191.474C191.156 69.9079 190.845 69.8149 190.579 69.6406L101.551 11.3984C101.01 11.0448 100.309 11.0432 99.7652 11.3951L10.0442 69.6439C9.7787 69.8158 9.46976 69.9079 9.15427 69.9079H1.63893C0.734243 69.9079 0 69.1711 0 68.2633V63.3297C0 61.5158 1.47012 60.0406 3.27787 60.0406H6.73438L97.9984 0.790313C99.6275 -0.267126 101.729 -0.263015 103.354 0.80018L193.91 60.0406H196.672C198.48 60.0406 199.95 61.5158 199.95 63.3297V68.2633C199.95 69.1711 199.216 69.9079 198.311 69.9079ZM191.961 66.6188H196.672V63.3297H193.423C193.105 63.3297 192.794 63.2368 192.528 63.0625L101.565 3.55478C101.024 3.20203 100.322 3.19956 99.7792 3.55149L8.10863 63.0657C7.84312 63.2376 7.53418 63.3297 7.21869 63.3297H3.27787V66.6188H8.66996L97.9845 8.63394C99.6136 7.57651 101.716 7.58062 103.341 8.64381L191.961 66.6188Z" fill="#3762CC"/>
</g>
</g>
</svg>
