<svg width="200" height="200" viewBox="0 0 200 200" fill="none" xmlns="http://www.w3.org/2000/svg">
<g id="built in payment processing">
<g id="Group">
<path id="Vector" d="M36.6945 20.3408C36.6945 20.3408 39.357 30.2307 47.0242 30.6893C47.0242 30.6893 36.7898 34.2244 36.6172 41.7846C36.6172 41.7846 34.6031 31.1814 26.5195 30.801C26.5195 30.801 35.9336 29.3752 36.6945 20.3408Z" fill="#D7E057"/>
<path id="Vector_2" d="M36.6164 42.9564C36.0594 42.9564 35.5735 42.5611 35.4664 42.0056C35.4477 41.9087 33.518 32.304 26.4649 31.9728C25.8633 31.9439 25.3805 31.4642 25.3493 30.8626C25.318 30.2603 25.7485 29.7337 26.3438 29.6439C26.6883 29.59 34.8547 28.2243 35.5266 20.2431C35.5743 19.6767 36.0219 19.2267 36.5883 19.1751C37.15 19.1259 37.6766 19.4869 37.8258 20.0361C37.8508 20.1267 40.3719 29.1189 47.0946 29.5212C47.6524 29.5548 48.1078 29.9775 48.1852 30.5306C48.2618 31.0837 47.936 31.615 47.4086 31.7986C47.3141 31.8314 37.9414 35.1665 37.7891 41.8134C37.775 42.4126 37.3125 42.904 36.7149 42.9533C36.6821 42.9548 36.6485 42.9564 36.6164 42.9564ZM30.5688 30.6673C33.5985 32.2056 35.436 35.1564 36.4953 37.6025C38.0789 34.4611 41.1375 32.3001 43.4868 31.0189C40.2571 29.5798 38.1875 26.6033 36.9758 24.204C35.5758 27.6103 32.8586 29.5704 30.5688 30.6673Z" fill="#3A312A"/>
<path id="Vector_3" d="M19.7418 33.6072C19.7418 33.6072 21.6254 40.6025 27.048 40.9267C27.048 40.9267 19.809 43.4275 19.6871 48.7744C19.6871 48.7744 18.2621 41.2744 12.5449 41.0056C12.5449 41.0056 19.2035 39.997 19.7418 33.6072Z" fill="#D7E057"/>
<path id="Vector_4" d="M19.6875 49.947C19.1305 49.947 18.643 49.551 18.5375 48.9939C18.525 48.9299 17.2063 42.3986 12.4914 42.1767C11.8899 42.1478 11.4078 41.6681 11.3766 41.0666C11.3453 40.4642 11.7758 39.9377 12.3711 39.847C12.6024 39.8103 18.1243 38.8759 18.5758 33.5088C18.6235 32.9416 19.0719 32.4908 19.6383 32.44C20.2063 32.3924 20.7258 32.7525 20.8743 33.301C20.8907 33.3627 22.6149 39.4877 27.1188 39.7572C27.6774 39.7908 28.1336 40.2135 28.2094 40.7674C28.286 41.3213 27.9594 41.8517 27.4313 42.0345C27.368 42.0564 20.961 44.3408 20.8594 48.8017C20.8453 49.401 20.3821 49.8931 19.7844 49.9431C19.7524 49.9455 19.7196 49.947 19.6875 49.947ZM16.1571 40.9408C17.8032 41.9822 18.9094 43.5924 19.6313 45.0658C20.7063 43.3213 22.3774 42.0408 23.8219 41.1806C22.0352 40.1892 20.7875 38.5635 19.9618 37.0994C19.0453 38.8861 17.6071 40.1275 16.1571 40.9408Z" fill="#3A312A"/>
<path id="Vector_5" d="M19.7418 12.7805C19.7418 12.7805 21.6254 19.7758 27.048 20.1C27.048 20.1 19.809 22.6008 19.6871 27.9477C19.6871 27.9477 18.2621 20.4477 12.5449 20.179C12.5449 20.179 19.2035 19.1711 19.7418 12.7805Z" fill="#D7E057"/>
<path id="Vector_6" d="M19.6871 29.1204C19.1293 29.1204 18.6426 28.7243 18.5364 28.1673C18.5239 28.1032 17.2051 21.572 12.4903 21.3501C11.8879 21.3212 11.4059 20.8415 11.3746 20.2399C11.3434 19.6376 11.7739 19.111 12.3692 19.0212C12.6004 18.9845 18.1223 18.0501 18.5739 12.6821C18.6215 12.1149 19.07 11.6641 19.6364 11.6134C20.2043 11.5657 20.7239 11.9251 20.8723 12.4743C20.8887 12.536 22.6129 18.6618 27.1176 18.9313C27.6754 18.9649 28.1325 19.3884 28.2082 19.9423C28.2848 20.4962 27.9582 21.0266 27.4301 21.2095C27.3668 21.2313 20.9598 23.5157 20.8582 27.9766C20.8442 28.5759 20.3809 29.068 19.7832 29.118C19.752 29.1196 19.7192 29.1204 19.6871 29.1204ZM16.1567 20.1149C17.8028 21.1563 18.909 22.7673 19.6309 24.2399C20.7059 22.4954 22.377 21.2149 23.8223 20.3555C22.0356 19.3641 20.7879 17.7384 19.9621 16.2743C19.045 18.0602 17.6067 19.3016 16.1567 20.1149Z" fill="#3A312A"/>
<path id="Vector_7" d="M101.144 33.9135L36.7824 98.2752C33.6559 101.402 33.6559 106.474 36.7824 109.6L91.1965 164.014C94.323 167.141 99.3949 167.141 102.521 164.014L185.109 81.4268C188.236 78.3002 188.236 73.2283 185.109 70.1018L130.695 15.6877C127.568 12.5611 122.497 12.5611 119.37 15.6877L109.071 25.9861L101.144 33.9135Z" fill="#F16C7A"/>
<path id="Vector_8" d="M96.8592 167.527C94.5084 167.527 92.1576 166.633 90.3678 164.843L35.9537 110.429C32.3748 106.85 32.3748 101.026 35.9537 97.447L100.316 33.0853C100.774 32.6274 101.515 32.6274 101.973 33.0853C102.431 33.5431 102.431 34.2853 101.973 34.7423L37.6107 99.104C36.3201 100.395 35.6092 102.112 35.6092 103.938C35.6092 105.764 36.3201 107.481 37.6107 108.772L92.0248 163.186C94.6904 165.851 99.0271 165.851 101.693 163.186L184.281 80.5978C185.572 79.3071 186.283 77.5899 186.283 75.7634C186.283 73.9368 185.572 72.2204 184.281 70.9298L129.867 16.5157C128.576 15.2251 126.859 14.5142 125.034 14.5142C123.208 14.5142 121.491 15.2251 120.2 16.5157L109.901 26.8142C109.443 27.272 108.701 27.272 108.244 26.8142C107.786 26.3563 107.786 25.6142 108.244 25.1571L118.543 14.8587C120.276 13.1251 122.581 12.1704 125.034 12.1704C127.487 12.1704 129.791 13.1251 131.525 14.8587L185.938 69.2728C189.517 72.8517 189.517 78.6759 185.938 82.2548L103.35 164.843C101.561 166.632 99.21 167.527 96.8592 167.527Z" fill="#3A312A"/>
<path id="Vector_9" d="M136.908 21.902L42.9961 115.814L55.3333 128.151L149.245 34.2392L136.908 21.902Z" fill="#87796F"/>
<path id="Vector_10" d="M55.334 129.324C55.034 129.324 54.734 129.21 54.5051 128.981L42.1676 116.644C41.7098 116.187 41.7098 115.444 42.1676 114.987L136.081 21.0736C136.539 20.6158 137.28 20.6158 137.738 21.0736L150.075 33.4111C150.533 33.8681 150.533 34.6111 150.075 35.0681L56.1629 128.981C55.934 129.21 55.634 129.324 55.334 129.324ZM44.6535 115.815L55.334 126.495L147.589 34.24L136.909 23.5595L44.6535 115.815Z" fill="#3A312A"/>
<path id="Vector_11" d="M12.7676 151.312V179.212C12.7676 183.635 16.3527 187.22 20.7754 187.22H137.572C141.995 187.22 145.58 183.635 145.58 179.212V102.259C145.58 97.8361 141.995 94.251 137.572 94.251H20.7754C16.3527 94.251 12.7676 97.8361 12.7676 102.259V139.875V151.312Z" fill="#FCE8CB"/>
<path id="Vector_12" d="M137.572 188.392H20.7754C15.7137 188.392 11.5957 184.274 11.5957 179.212V151.312C11.5957 150.664 12.1199 150.14 12.7676 150.14C13.4152 150.14 13.9395 150.664 13.9395 151.312V179.212C13.9395 182.981 17.0059 186.048 20.7754 186.048H137.572C141.342 186.048 144.408 182.981 144.408 179.212V102.259C144.408 98.4893 141.342 95.4229 137.572 95.4229H20.7754C17.0059 95.4229 13.9395 98.4893 13.9395 102.259V139.875C13.9395 140.523 13.4152 141.047 12.7676 141.047C12.1199 141.047 11.5957 140.523 11.5957 139.875V102.259C11.5957 97.1971 15.7137 93.0791 20.7754 93.0791H137.572C142.634 93.0791 146.752 97.1971 146.752 102.259V179.212C146.752 184.274 142.633 188.392 137.572 188.392Z" fill="#3A312A"/>
<path id="Vector_13" d="M40.5223 136.009C48.4942 136.009 54.9566 129.547 54.9566 121.575C54.9566 113.603 48.4942 107.141 40.5223 107.141C32.5504 107.141 26.0879 113.603 26.0879 121.575C26.0879 129.547 32.5504 136.009 40.5223 136.009Z" fill="#D7E057"/>
<path id="Vector_14" d="M40.5223 137.181C31.9168 137.181 24.916 130.18 24.916 121.575C24.916 112.97 31.9168 105.969 40.5223 105.969C49.1277 105.969 56.1285 112.97 56.1285 121.575C56.1285 130.18 49.1277 137.181 40.5223 137.181ZM40.5223 108.313C33.209 108.313 27.2598 114.263 27.2598 121.576C27.2598 128.889 33.209 134.838 40.5223 134.838C47.8348 134.838 53.7848 128.889 53.7848 121.576C53.7848 114.263 47.8348 108.313 40.5223 108.313Z" fill="#3A312A"/>
<path id="Vector_15" d="M88.6723 171.667H28.2637C27.616 171.667 27.0918 171.143 27.0918 170.495C27.0918 169.848 27.616 169.323 28.2637 169.323H88.6723C89.3199 169.323 89.8441 169.848 89.8441 170.495C89.8441 171.143 89.3199 171.667 88.6723 171.667Z" fill="#3A312A"/>
<path id="Vector_16" d="M88.6723 157.605H28.2637C27.616 157.605 27.0918 157.081 27.0918 156.433C27.0918 155.785 27.616 155.261 28.2637 155.261H88.6723C89.3199 155.261 89.8441 155.785 89.8441 156.433C89.8441 157.081 89.3199 157.605 88.6723 157.605Z" fill="#3A312A"/>
<path id="Vector_17" d="M184.093 144.683H182.704C181.89 141.124 180.471 137.797 178.561 134.814L179.582 133.792C180.76 132.615 180.76 130.706 179.582 129.529L174.154 124.101C172.977 122.924 171.068 122.924 169.891 124.101L168.831 125.161C165.854 123.286 162.54 121.898 159 121.109V119.59C159 117.925 157.65 116.575 155.986 116.575H148.309C146.644 116.575 145.294 117.925 145.294 119.59V121.109C143.418 121.614 138.44 123.286 135.464 125.161L134.404 124.101C133.226 122.924 131.318 122.924 130.139 124.101L124.711 129.529C123.534 130.706 123.534 132.615 124.711 133.792L125.733 134.814C123.822 137.797 122.404 141.124 121.589 144.683H120.2C118.536 144.683 117.186 146.033 117.186 147.698V155.374C117.186 157.039 118.536 158.389 120.2 158.389H121.517C122.3 161.992 123.701 165.363 125.605 168.385L124.711 169.28C123.534 170.457 123.534 172.366 124.711 173.544L130.139 178.972C131.317 180.149 133.226 180.149 134.404 178.972L135.259 178.117C138.288 180.057 141.673 181.489 145.293 182.296V183.483C145.293 185.148 146.643 186.498 148.308 186.498H155.985C157.65 186.498 159 185.148 159 183.483V182.296C162.621 181.488 166.005 180.056 169.034 178.117L169.889 178.972C171.067 180.149 172.975 180.149 174.153 178.972L179.581 173.544C180.758 172.367 180.758 170.457 179.581 169.28L178.686 168.385C180.591 165.363 181.993 161.992 182.775 158.389H184.092C185.757 158.389 187.107 157.039 187.107 155.374V147.698C187.108 146.032 185.758 144.683 184.093 144.683ZM152.147 167.209C143.491 167.209 136.474 160.192 136.474 151.535C136.474 142.879 143.491 135.862 152.147 135.862C160.804 135.862 167.821 142.879 167.821 151.535C167.821 160.192 160.804 167.209 152.147 167.209Z" fill="#8AC6DD"/>
<path id="Vector_18" d="M155.986 187.668H148.309C146.001 187.668 144.123 185.79 144.123 183.481V183.22C141.059 182.443 138.144 181.229 135.432 179.6L135.233 179.799C133.6 181.432 130.945 181.432 129.312 179.799L123.884 174.371C122.252 172.739 122.252 170.082 123.884 168.45L124.126 168.208C122.529 165.504 121.342 162.603 120.587 159.56H120.202C117.893 159.56 116.016 157.682 116.016 155.373V147.697C116.016 145.388 117.893 143.51 120.202 143.51H120.671C121.449 140.509 122.649 137.648 124.249 134.985L123.884 134.62C122.252 132.988 122.252 130.332 123.884 128.7L129.312 123.272C130.103 122.481 131.154 122.045 132.273 122.045C133.391 122.045 134.442 122.481 135.233 123.272L135.649 123.688C138.442 122.115 142.166 120.823 144.123 120.227V119.589C144.123 117.28 146.001 115.402 148.309 115.402H155.986C158.295 115.402 160.172 117.28 160.172 119.589V120.182C163.154 120.939 166 122.113 168.654 123.68L169.062 123.271C169.853 122.48 170.904 122.045 172.023 122.045C173.141 122.045 174.192 122.481 174.983 123.272L180.411 128.7C182.044 130.332 182.044 132.988 180.411 134.62L180.045 134.985C181.645 137.648 182.846 140.509 183.624 143.51H184.093C186.402 143.51 188.28 145.388 188.28 147.697V155.373C188.28 157.682 186.402 159.56 184.093 159.56H183.708C182.953 162.603 181.766 165.504 180.17 168.208L180.411 168.45C182.043 170.082 182.043 172.739 180.411 174.371L174.983 179.799C173.35 181.432 170.695 181.432 169.062 179.799L168.863 179.6C166.152 181.229 163.236 182.443 160.172 183.22V183.481C160.172 185.791 158.295 187.668 155.986 187.668ZM135.261 176.943C135.478 176.943 135.698 177.004 135.893 177.128C138.862 179.031 142.112 180.384 145.55 181.152C146.086 181.271 146.467 181.746 146.467 182.295V183.482C146.467 184.498 147.294 185.325 148.309 185.325H155.986C157.002 185.325 157.828 184.498 157.828 183.482V182.295C157.828 181.746 158.209 181.271 158.745 181.152C162.184 180.384 165.434 179.031 168.402 177.128C168.868 176.83 169.475 176.898 169.863 177.287L170.72 178.143C171.438 178.861 172.607 178.861 173.326 178.143L178.754 172.715C179.473 171.996 179.473 170.827 178.754 170.108L177.859 169.213C177.473 168.827 177.405 168.223 177.696 167.76C179.565 164.795 180.889 161.558 181.631 158.14C181.748 157.601 182.225 157.216 182.777 157.216H184.092C185.109 157.216 185.935 156.39 185.935 155.373V147.697C185.935 146.68 185.108 145.854 184.092 145.854H182.704C182.158 145.854 181.683 145.477 181.562 144.943C180.789 141.566 179.447 138.37 177.573 135.445C177.276 134.982 177.342 134.373 177.731 133.984L178.754 132.963C179.473 132.244 179.473 131.075 178.754 130.356L173.326 124.928C172.63 124.231 171.416 124.231 170.72 124.928L169.659 125.988C169.273 126.374 168.669 126.443 168.206 126.151C165.288 124.312 162.105 123 158.746 122.25C158.209 122.13 157.829 121.655 157.829 121.106V119.588C157.829 118.571 157.002 117.745 155.987 117.745H148.31C147.294 117.745 146.468 118.571 146.468 119.588V121.106C146.468 121.636 146.112 122.1 145.601 122.238C143.72 122.744 138.92 124.367 136.091 126.15C135.628 126.442 135.025 126.373 134.637 125.988L133.577 124.927C132.88 124.23 131.666 124.23 130.97 124.927L125.542 130.355C124.823 131.073 124.823 132.242 125.542 132.961L126.564 133.983C126.953 134.373 127.02 134.98 126.722 135.444C124.849 138.37 123.507 141.565 122.734 144.941C122.613 145.474 122.138 145.852 121.592 145.852H120.203C119.187 145.852 118.361 146.679 118.361 147.695V155.372C118.361 156.388 119.187 157.215 120.203 157.215H121.52C122.072 157.215 122.548 157.599 122.666 158.138C123.408 161.556 124.733 164.793 126.601 167.759C126.892 168.221 126.824 168.825 126.437 169.212L125.543 170.106C124.824 170.825 124.824 171.995 125.543 172.713L130.971 178.141C131.69 178.859 132.859 178.859 133.577 178.141L134.434 177.285C134.657 177.06 134.958 176.943 135.261 176.943ZM152.148 168.38C142.859 168.38 135.302 160.823 135.302 151.535C135.302 142.247 142.859 134.69 152.148 134.69C161.436 134.69 168.992 142.247 168.992 151.535C168.992 160.824 161.436 168.38 152.148 168.38ZM152.148 137.034C144.152 137.034 137.646 143.539 137.646 151.535C137.646 159.531 144.152 166.037 152.148 166.037C160.143 166.037 166.648 159.531 166.648 151.535C166.648 143.539 160.143 137.034 152.148 137.034Z" fill="#3A312A"/>
<path id="Vector_19" d="M186.283 75.7656C186.283 77.5859 185.572 79.3047 184.283 80.5938L149.479 115.406H148.314C147.76 115.406 147.236 115.516 146.752 115.711V104.813L170.119 81.4453C173.244 78.3125 173.244 73.2422 170.119 70.1172L142.572 42.5703L149.252 35.8984L184.283 70.9297C185.572 72.2188 186.283 73.9375 186.283 75.7656Z" fill="#D34E5C"/>
<path id="Vector_20" d="M135.252 21.8984L128.58 28.5781L118.361 18.3594L120.197 16.5156C121.494 15.2266 123.205 14.5156 125.033 14.5156C126.861 14.5156 128.58 15.2266 129.869 16.5156L135.252 21.8984Z" fill="#D34E5C"/>
<path id="Vector_21" d="M136.912 23.5575L130.234 30.2275L140.91 40.9152L147.588 34.2452L136.912 23.5575Z" fill="#695B51"/>
</g>
</g>
</svg>
