<svg width="200" height="200" viewBox="0 0 200 200" fill="none" xmlns="http://www.w3.org/2000/svg">
<g id="business address">
<g id="Group">
<g id="Group_2">
<path id="Vector" d="M95.293 53.125V42.1875C95.293 37.8781 98.7992 34.375 103.105 34.375H128.105C132.412 34.375 135.918 37.8781 135.918 42.1875V53.125H145.293V42.1875C145.293 32.7125 137.584 25 128.105 25H103.105C93.6273 25 85.918 32.7125 85.918 42.1875V53.125H95.293Z" fill="#6C696F"/>
<path id="Vector_2" d="M145.293 54.6875H135.918C135.055 54.6875 134.355 53.9875 134.355 53.125V42.1875C134.355 38.7406 131.552 35.9375 128.105 35.9375H103.105C99.6586 35.9375 96.8555 38.7406 96.8555 42.1875V53.125C96.8555 53.9875 96.1555 54.6875 95.293 54.6875H85.918C85.0555 54.6875 84.3555 53.9875 84.3555 53.125V42.1875C84.3555 31.8469 92.7648 23.4375 103.105 23.4375H128.105C138.446 23.4375 146.855 31.8469 146.855 42.1875V53.125C146.855 53.9875 146.155 54.6875 145.293 54.6875ZM137.48 51.5625H143.73V42.1875C143.73 33.5719 136.721 26.5625 128.105 26.5625H103.105C94.4898 26.5625 87.4805 33.5719 87.4805 42.1875V51.5625H93.7305V42.1875C93.7305 37.0188 97.9367 32.8125 103.105 32.8125H128.105C133.274 32.8125 137.48 37.0188 137.48 42.1875V51.5625Z" fill="#212A41"/>
</g>
<g id="Group_3">
<path id="Vector_3" d="M149.98 175H62.4805C52.1242 175 43.7305 166.606 43.7305 156.25V65.625C43.7305 58.7219 49.3273 53.125 56.2305 53.125H149.98C160.337 53.125 168.73 61.5188 168.73 71.875V156.25C168.73 166.606 160.337 175 149.98 175Z" fill="#99A2B9"/>
<path id="Vector_4" d="M149.98 176.562H62.4805C51.2805 176.562 42.168 167.45 42.168 156.25V65.625C42.168 57.8719 48.4773 51.5625 56.2305 51.5625H149.98C161.18 51.5625 170.293 60.675 170.293 71.875V156.25C170.293 167.45 161.18 176.562 149.98 176.562ZM56.2305 54.6875C50.1992 54.6875 45.293 59.5938 45.293 65.625V156.25C45.293 165.728 53.0055 173.438 62.4805 173.438H149.98C159.455 173.438 167.168 165.728 167.168 156.25V71.875C167.168 62.3969 159.455 54.6875 149.98 54.6875H56.2305Z" fill="#212A41"/>
</g>
<g id="Group_4">
<path id="Vector_5" d="M168.73 175H81.2305C70.8742 175 62.4805 166.606 62.4805 156.25V59.375C62.4805 55.9219 65.2773 53.125 68.7305 53.125H174.98C181.884 53.125 187.48 58.7219 187.48 65.625V156.25C187.48 166.606 179.087 175 168.73 175Z" fill="#B7C0D7"/>
<path id="Vector_6" d="M168.73 176.562H81.2305C70.0305 176.562 60.918 167.45 60.918 156.25V59.375C60.918 55.0687 64.4211 51.5625 68.7305 51.5625H174.98C182.734 51.5625 189.043 57.8719 189.043 65.625V156.25C189.043 167.45 179.93 176.562 168.73 176.562ZM68.7305 54.6875C66.1461 54.6875 64.043 56.7906 64.043 59.375V156.25C64.043 165.728 71.7555 173.438 81.2305 173.438H168.73C178.205 173.438 185.918 165.728 185.918 156.25V65.625C185.918 59.5938 181.012 54.6875 174.98 54.6875H68.7305Z" fill="#212A41"/>
</g>
<g id="Group_5">
<path id="Vector_7" d="M168.73 120.312H81.2305C70.8742 120.312 62.4805 111.919 62.4805 101.562V59.375C62.4805 55.9219 65.2773 53.125 68.7305 53.125H174.98C181.884 53.125 187.48 58.7219 187.48 65.625V101.562C187.48 111.919 179.087 120.312 168.73 120.312Z" fill="#005B8A"/>
<path id="Vector_8" d="M168.73 121.875H81.2305C70.0305 121.875 60.918 112.763 60.918 101.562V59.375C60.918 55.0687 64.4211 51.5625 68.7305 51.5625H174.98C182.734 51.5625 189.043 57.8719 189.043 65.625V101.562C189.043 112.763 179.93 121.875 168.73 121.875ZM68.7305 54.6875C66.1461 54.6875 64.043 56.7906 64.043 59.375V101.562C64.043 111.041 71.7555 118.75 81.2305 118.75H168.73C178.205 118.75 185.918 111.041 185.918 101.562V65.625C185.918 59.5938 181.012 54.6875 174.98 54.6875H68.7305Z" fill="#212A41"/>
</g>
<g id="Group_6">
<path id="Vector_9" d="M168.73 120.312H90.6055C80.2492 120.312 71.8555 111.919 71.8555 101.562V65.625C71.8555 58.7219 66.2586 53.125 59.3555 53.125H174.98C181.884 53.125 187.48 58.7219 187.48 65.625V101.562C187.48 111.919 179.087 120.312 168.73 120.312Z" fill="#0079A8"/>
<path id="Vector_10" d="M168.73 121.875H90.6055C79.4055 121.875 70.293 112.763 70.293 101.562V65.625C70.293 59.5938 65.3867 54.6875 59.3555 54.6875C58.493 54.6875 57.793 53.9875 57.793 53.125C57.793 52.2625 58.493 51.5625 59.3555 51.5625H174.98C182.734 51.5625 189.043 57.8719 189.043 65.625V101.562C189.043 112.763 179.93 121.875 168.73 121.875ZM68.1836 54.6875C71.3742 57.2687 73.418 61.2125 73.418 65.625V101.562C73.418 111.041 81.1305 118.75 90.6055 118.75H168.73C178.205 118.75 185.918 111.041 185.918 101.562V65.625C185.918 59.5938 181.012 54.6875 174.98 54.6875H68.1836Z" fill="#212A41"/>
</g>
<g id="Group_7">
<path id="Vector_11" d="M181.23 157.812C180.368 157.812 179.668 157.112 179.668 156.25V123.206C179.668 122.344 180.368 121.644 181.23 121.644C182.093 121.644 182.793 122.344 182.793 123.206V156.25C182.793 157.112 182.093 157.812 181.23 157.812Z" fill="#99A2B9"/>
</g>
<g id="Group_8">
<path id="Vector_12" d="M68.7305 157.812C67.868 157.812 67.168 157.112 67.168 156.25V123.206C67.168 122.344 67.868 121.644 68.7305 121.644C69.593 121.644 70.293 122.344 70.293 123.206V156.25C70.293 157.112 69.593 157.812 68.7305 157.812Z" fill="#D5DEF5"/>
</g>
<g id="Group_9">
<path id="Vector_13" d="M131.23 140.625L124.98 146.875L118.73 140.625V109.375C118.73 107.65 120.13 106.25 121.855 106.25H128.105C129.83 106.25 131.23 107.65 131.23 109.375V140.625Z" fill="#E0E0E0"/>
<path id="Vector_14" d="M124.98 148.438C124.58 148.438 124.18 148.284 123.874 147.981L117.624 141.731C117.33 141.438 117.168 141.041 117.168 140.625V109.375C117.168 106.791 119.271 104.688 121.855 104.688H128.105C130.69 104.688 132.793 106.791 132.793 109.375V140.625C132.793 141.041 132.627 141.438 132.337 141.731L126.087 147.981C125.78 148.284 125.38 148.438 124.98 148.438ZM120.293 139.978L124.98 144.666L129.668 139.978V109.375C129.668 108.513 128.965 107.812 128.105 107.812H121.855C120.996 107.812 120.293 108.513 120.293 109.375V139.978Z" fill="#212A41"/>
</g>
<g id="Group_10">
<path id="Vector_15" d="M134.355 120.312H115.605C113.88 120.312 112.48 121.713 112.48 123.438V126.562C112.48 128.287 113.88 129.688 115.605 129.688H134.355C136.08 129.688 137.48 128.287 137.48 126.562V123.438C137.48 121.713 136.08 120.312 134.355 120.312Z" fill="#E0E0E0"/>
<path id="Vector_16" d="M134.355 131.25H115.605C113.021 131.25 110.918 129.147 110.918 126.562V123.438C110.918 120.853 113.021 118.75 115.605 118.75H134.355C136.94 118.75 139.043 120.853 139.043 123.438V126.562C139.043 129.147 136.94 131.25 134.355 131.25ZM115.605 121.875C114.746 121.875 114.043 122.575 114.043 123.438V126.562C114.043 127.425 114.746 128.125 115.605 128.125H134.355C135.215 128.125 135.918 127.425 135.918 126.562V123.438C135.918 122.575 135.215 121.875 134.355 121.875H115.605Z" fill="#212A41"/>
</g>
<g id="Group_11">
<path id="Vector_17" d="M181.23 103.125C180.368 103.125 179.668 102.425 179.668 101.562V65.625C179.668 64.7625 180.368 64.0625 181.23 64.0625C182.093 64.0625 182.793 64.7625 182.793 65.625V101.562C182.793 102.425 182.093 103.125 181.23 103.125Z" fill="#005B8A"/>
</g>
<g id="Group_12">
<path id="Vector_18" d="M78.1055 103.125C77.243 103.125 76.543 102.425 76.543 101.562V65.625C76.543 64.7625 77.243 64.0625 78.1055 64.0625C78.968 64.0625 79.668 64.7625 79.668 65.625V101.562C79.668 102.425 78.968 103.125 78.1055 103.125Z" fill="#1E97C6"/>
</g>
<g id="Group_13">
<path id="Vector_19" d="M50.2715 175H37.7715C34.3184 175 31.5215 172.203 31.5215 168.75C31.5215 165.297 34.3184 162.5 37.7715 162.5H50.2715C53.7246 162.5 56.5215 165.297 56.5215 168.75C56.5215 172.203 53.7215 175 50.2715 175Z" fill="#C2C2C2"/>
<path id="Vector_20" d="M50.2715 176.562H37.7715C33.4621 176.562 29.959 173.056 29.959 168.75C29.959 164.444 33.4621 160.938 37.7715 160.938H50.2715C54.5809 160.938 58.084 164.444 58.084 168.75C58.084 173.056 54.5809 176.562 50.2715 176.562ZM37.7715 164.062C35.1871 164.062 33.084 166.166 33.084 168.75C33.084 171.334 35.1871 173.438 37.7715 173.438H50.2715C52.8559 173.438 54.959 171.334 54.959 168.75C54.959 166.166 52.8559 164.062 50.2715 164.062H37.7715Z" fill="#212A41"/>
</g>
<g id="Group_14">
<path id="Vector_21" d="M59.6465 175H47.1465C43.6934 175 40.8965 172.203 40.8965 168.75C40.8965 165.297 43.6934 162.5 47.1465 162.5H59.6465C63.0996 162.5 65.8965 165.297 65.8965 168.75C65.8965 172.203 63.0965 175 59.6465 175Z" fill="#E0E0E0"/>
<path id="Vector_22" d="M59.6465 176.562H47.1465C42.8371 176.562 39.334 173.056 39.334 168.75C39.334 164.444 42.8371 160.938 47.1465 160.938H59.6465C63.9559 160.938 67.459 164.444 67.459 168.75C67.459 173.056 63.9559 176.562 59.6465 176.562ZM47.1465 164.062C44.5621 164.062 42.459 166.166 42.459 168.75C42.459 171.334 44.5621 173.438 47.1465 173.438H59.6465C62.2309 173.438 64.334 171.334 64.334 168.75C64.334 166.166 62.2309 164.062 59.6465 164.062H47.1465Z" fill="#212A41"/>
</g>
<g id="Group_15">
<path id="Vector_23" d="M71.7279 81.8441C60.7622 74.0129 46.031 74.0129 35.0654 81.8441C20.9872 91.9004 17.6372 111.419 27.5591 125.591L53.3966 162.5L79.2341 125.591C89.1529 111.419 85.8029 91.9004 71.7279 81.8441ZM53.3966 119.719C46.4935 119.719 40.8966 114.122 40.8966 107.219C40.8966 100.316 46.4935 94.7191 53.3966 94.7191C60.2997 94.7191 65.8966 100.316 65.8966 107.219C65.8966 114.122 60.2997 119.719 53.3966 119.719Z" fill="#D32E5E"/>
<path id="Vector_24" d="M53.396 164.063C52.8867 164.063 52.4086 163.813 52.1179 163.397L26.2804 126.488C15.9117 111.678 19.4429 91.0814 34.1554 80.5752C45.6679 72.3564 61.1273 72.3564 72.6367 80.5752C87.346 91.0814 90.8804 111.678 80.5117 126.488L54.6742 163.397C54.3836 163.813 53.9054 164.063 53.396 164.063ZM53.396 77.5346C47.2898 77.5346 41.1836 79.3971 35.9742 83.1158C22.6492 92.6314 19.4523 111.285 28.8398 124.697L53.396 159.778L77.9523 124.697C87.3398 111.285 84.1398 92.6314 70.8179 83.1158C65.6086 79.3939 59.5023 77.5346 53.396 77.5346ZM53.396 121.281C45.6429 121.281 39.3336 114.972 39.3336 107.219C39.3336 99.4658 45.6429 93.1564 53.396 93.1564C61.1492 93.1564 67.4585 99.4658 67.4585 107.219C67.4585 114.972 61.1492 121.281 53.396 121.281ZM53.396 96.2814C47.3648 96.2814 42.4586 101.188 42.4586 107.219C42.4586 113.25 47.3648 118.156 53.396 118.156C59.4273 118.156 64.3335 113.25 64.3335 107.219C64.3335 101.188 59.4273 96.2814 53.396 96.2814Z" fill="#212A41"/>
</g>
<g id="Group_16">
<path id="Vector_25" d="M48.709 118.791C50.159 119.378 51.7371 119.719 53.3965 119.719C60.2996 119.719 65.8965 114.122 65.8965 107.219C65.8965 100.316 60.2996 94.7188 53.3965 94.7188C51.7371 94.7188 50.159 95.0594 48.709 95.6469C53.2871 97.5031 56.5215 101.978 56.5215 107.219C56.5215 112.463 53.2871 116.934 48.709 118.791Z" fill="#B51040"/>
<path id="Vector_26" d="M53.3965 121.281C51.5996 121.281 49.8246 120.931 48.1215 120.241C47.5309 120 47.1465 119.428 47.1465 118.794C47.1465 118.159 47.5309 117.584 48.1215 117.347C52.2746 115.663 54.959 111.688 54.959 107.222C54.959 102.756 52.2777 98.7813 48.1215 97.097C47.5309 96.8563 47.1465 96.2845 47.1465 95.6501C47.1465 95.0157 47.5309 94.4407 48.1215 94.2032C49.8246 93.5126 51.5965 93.1626 53.3965 93.1626C61.1496 93.1626 67.459 99.472 67.459 107.225C67.459 114.978 61.1496 121.281 53.3965 121.281ZM52.8684 118.144C59.0715 118.459 64.334 113.428 64.334 107.219C64.334 101.009 59.0684 95.9251 52.8684 96.2938C56.1215 98.9126 58.084 102.884 58.084 107.219C58.084 111.553 56.1215 115.522 52.8684 118.144Z" fill="#212A41"/>
</g>
<g id="Group_17">
<path id="Vector_27" d="M27.5591 125.591C17.6372 111.419 20.9872 91.8972 35.0654 81.8441C39.2091 78.8847 43.8935 77.0472 48.7091 76.3222C40.7872 75.1347 32.5122 76.9722 25.6904 81.8441C11.6122 91.9003 8.26224 111.419 18.1841 125.591L44.0216 162.5H53.3966L27.5591 125.591Z" fill="#B51040"/>
<path id="Vector_28" d="M53.3961 164.063H44.0211C43.5117 164.063 43.0336 163.813 42.7429 163.397L16.9054 126.488C6.53668 111.678 10.0679 91.0815 24.7804 80.5752C31.8086 75.5565 40.3867 73.4971 48.9398 74.7815C49.7054 74.8971 50.2711 75.5533 50.2711 76.3283C50.2711 77.1033 49.7054 77.7596 48.9398 77.8752C44.2867 78.5721 39.8023 80.3877 35.9742 83.1221C22.6492 92.6377 19.4523 111.291 28.8398 124.703L54.6773 161.613C55.0117 162.091 55.0523 162.713 54.7836 163.231C54.5148 163.75 53.9773 164.063 53.3961 164.063ZM44.8367 160.938H50.3961L26.2804 126.488C15.9117 111.678 19.4429 91.0815 34.1554 80.5752C35.4523 79.6502 36.8211 78.819 38.2367 78.0877C34.0898 78.9002 30.1273 80.5971 26.5992 83.1158C13.2742 92.6315 10.0773 111.285 19.4648 124.697L44.8367 160.938Z" fill="#212A41"/>
</g>
</g>
</g>
</svg>
