<svg width="200" height="200" viewBox="0 0 200 200" fill="none" xmlns="http://www.w3.org/2000/svg">
<g id="payment">
<g id="Group">
<path id="Vector" d="M87.5 43.75L53.6613 77.5887C51.3172 79.9328 50 83.1125 50 86.4273V168.75H100V156.25C110.355 156.25 118.75 147.855 118.75 137.5V43.75H87.5Z" fill="#F0915A"/>
<g id="Group_2">
<path id="Vector_2" d="M146.875 128.125H78.125C71.2215 128.125 65.625 122.529 65.625 115.625V18.75C65.625 11.8465 71.2215 6.25 78.125 6.25H146.875C153.779 6.25 159.375 11.8465 159.375 18.75V115.625C159.375 122.529 153.779 128.125 146.875 128.125Z" fill="#CD3232"/>
</g>
<g id="Group_3">
<path id="Vector_3" d="M137.5 128.125H78.125C71.2215 128.125 65.625 122.529 65.625 115.625V18.75C65.625 11.8465 71.2215 6.25 78.125 6.25H137.5C144.404 6.25 150 11.8465 150 18.75V115.625C150 122.529 144.404 128.125 137.5 128.125Z" fill="#FF4646"/>
</g>
<g id="Group_4">
<path id="Vector_4" d="M96.875 6.25H78.125V128.125H96.875V6.25Z" fill="#463C4B"/>
</g>
<g id="Group_5">
<path id="Vector_5" d="M53.6613 102.589L83.0809 73.1693C85.5215 70.7287 89.4789 70.7287 91.9195 73.1693L92.9918 74.2416C100.314 81.5639 100.314 93.4357 92.9918 100.758L81.25 112.5V137.5C81.25 147.856 72.8555 156.25 62.5 156.25H50V111.428C50 108.113 51.3168 104.933 53.6613 102.589Z" fill="#FAB991"/>
</g>
<g id="Group_6">
<path id="Vector_6" d="M82.2922 73.958C86.0316 77.6975 86.0316 83.7604 82.2922 87.4998C81.4293 88.3627 80.0301 88.3627 79.1672 87.4998L73.959 82.2916L82.2922 73.958Z" fill="#F0915A"/>
</g>
<g id="Group_7">
<path id="Vector_7" d="M109.375 193.75H40.625V178.125C40.625 172.947 44.8223 168.75 50 168.75H100C105.178 168.75 109.375 172.947 109.375 178.125V193.75Z" fill="#463C4B"/>
</g>
<g id="Group_8">
<path id="Vector_8" d="M81.25 178.125H109.375V193.75H75V184.375C75 180.923 77.798 178.125 81.25 178.125Z" fill="#32283C"/>
</g>
<g id="Group_9">
<path id="Vector_9" d="M128.125 40.625C135.029 40.625 140.625 35.0286 140.625 28.125C140.625 21.2214 135.029 15.625 128.125 15.625C121.221 15.625 115.625 21.2214 115.625 28.125C115.625 35.0286 121.221 40.625 128.125 40.625Z" fill="#A5C3DC"/>
</g>
<g id="Group_10">
<path id="Vector_10" d="M128.125 59.375C135.029 59.375 140.625 53.7786 140.625 46.875C140.625 39.9714 135.029 34.375 128.125 34.375C121.221 34.375 115.625 39.9714 115.625 46.875C115.625 53.7786 121.221 59.375 128.125 59.375Z" fill="#E6E6EB"/>
</g>
</g>
</g>
</svg>
