<svg width="200" height="200" viewBox="0 0 200 200" fill="none" xmlns="http://www.w3.org/2000/svg">
<g id="Group">
<g id="Group_2">
<g id="Group_3">
<path id="Vector" d="M110 46.6679C110 46.6679 134.31 21.9047 123.333 13.3348C115.73 7.39817 108.003 16.8881 103.333 10.0015C96.3033 -0.36177 89.9999 0.00155994 89.9999 0.00155994C89.9999 0.00155994 83.6966 -0.36177 76.6666 10.0015C71.9967 16.8881 64.27 7.39817 56.6667 13.3348C45.69 21.9047 70 46.6679 70 46.6679H110Z" fill="#6E83B7"/>
</g>
<path id="Vector_2" d="M114.013 38.0145C109.543 35.9978 104.237 34.8078 99.55 34.1245C101.897 31.9478 104.017 28.6679 104.973 23.6479L101.7 23.0212C100.54 29.1079 97.4634 32.0878 94.7601 33.5612C92.8567 33.4045 91.2134 33.3345 90.0001 33.3345C88.7967 33.3345 87.1734 33.4012 85.2934 33.5578C82.5668 32.0812 79.4601 29.1012 78.3034 23.0246L75.0301 23.6512C75.9868 28.6712 78.1068 31.9512 80.4534 34.1278C75.7634 34.8111 70.4568 36.0011 65.9868 38.0178C65.1535 38.3945 64.4001 38.8811 63.7168 39.4444C67.0768 43.6911 70.0001 46.6677 70.0001 46.6677H110C110 46.6677 112.923 43.6877 116.283 39.4411C115.6 38.8811 114.847 38.3911 114.013 38.0145Z" fill="#466089"/>
<g id="Group_4">
<path id="Vector_3" d="M89.9986 53.3347H116.665V47.1915C116.665 44.5248 115.069 42.1515 112.639 41.0548C104.885 37.5549 94.202 36.6682 89.9986 36.6682C85.7953 36.6682 75.112 37.5515 67.3587 41.0515C64.9287 42.1515 63.332 44.5248 63.332 47.1915V53.3347H89.9986Z" fill="#FFE352"/>
</g>
<g id="Group_5">
<path id="Vector_4" d="M89.9986 43.3347H93.3319C122.788 43.3347 146.665 67.2112 146.665 96.6676V127.811C146.665 131.347 148.068 134.737 150.572 137.237L152.762 139.427C155.262 141.927 156.668 145.321 156.668 148.854V150.001C156.668 157.364 150.698 163.334 143.335 163.334H89.9986H36.6653C29.302 163.334 23.332 157.364 23.332 150.001V148.857C23.332 145.321 24.7354 141.931 27.2387 139.431L29.4287 137.241C31.9287 134.741 33.3353 131.347 33.3353 127.814V96.6676C33.3353 67.2112 57.212 43.3347 86.6686 43.3347H89.9986Z" fill="#6E83B7"/>
</g>
<g id="Group_6">
<path id="Vector_5" d="M89.9986 126.667C104.726 126.667 116.665 114.728 116.665 100.001C116.665 85.2735 104.726 73.3345 89.9986 73.3345C75.2711 73.3345 63.332 85.2735 63.332 100.001C63.332 114.728 75.2711 126.667 89.9986 126.667Z" fill="#FFE352"/>
</g>
<path id="Vector_6" d="M93.3326 96.6678H86.666C84.8293 96.6678 83.3327 95.1711 83.3327 93.3344C83.3327 91.4978 84.8293 90.0011 86.666 90.0011H93.3326C95.1693 90.0011 96.666 91.4978 96.666 93.3344H103.333C103.333 87.8212 98.846 83.3345 93.3326 83.3345V80.0012H86.666V83.3345C81.1527 83.3345 76.666 87.8212 76.666 93.3344C76.666 98.8477 81.1527 103.334 86.666 103.334H93.3326C95.1693 103.334 96.666 104.831 96.666 106.668C96.666 108.504 95.1693 110.001 93.3326 110.001H86.666C84.8293 110.001 83.3327 108.504 83.3327 106.668H76.666C76.666 112.181 81.1527 116.668 86.666 116.668V120.001H93.3326V116.668C98.846 116.668 103.333 112.181 103.333 106.668C103.333 101.154 98.846 96.6678 93.3326 96.6678Z" fill="#6E83B7"/>
</g>
<g id="Group_7">
<g id="Group_8">
<path id="Vector_7" d="M173.334 140.001H163.334V196.667H173.334V140.001Z" fill="#EDEFF1"/>
</g>
<g id="Group_9">
<path id="Vector_8" d="M200.001 136.667H173.334V200H200.001V136.667Z" fill="#FFB0AA"/>
</g>
<g id="Group_10">
<path id="Vector_9" d="M156.667 143.334C151.873 133.931 138.507 130.001 130 130.001C121.494 130.001 109.897 133.647 103.334 143.334H73.3336C67.8103 143.334 63.3336 147.811 63.3336 153.334C63.3336 158.857 67.8103 163.334 73.3336 163.334H63.3336L21.6571 138.567C15.5537 134.904 7.65043 136.684 3.70377 142.604L1.12044 146.477C-0.922885 149.541 -0.0928869 153.681 2.97044 155.724L56.6437 191.094C58.8303 192.554 61.387 193.334 64.0203 193.334C75.4236 193.334 107.124 193.334 106.667 193.334H163.333V143.334H156.667Z" fill="#FFD3B3"/>
</g>
<g id="Group_11">
<path id="Vector_10" d="M65.9297 160C67.7597 162.034 70.383 163.334 73.333 163.334H106.666V160H65.9297Z" fill="#FCB98B"/>
</g>
<g id="Group_12">
<path id="Vector_11" d="M173.333 140.001H170V196.667H173.333V140.001Z" fill="#D3D3D3"/>
</g>
</g>
</g>
</svg>
